<svg width="25" height="24" viewBox="0 0 25 24" fill="none" xmlns="http://www.w3.org/2000/svg">
<g clip-path="url(#clip0_109_1783)">
<path d="M24.2002 12C24.2002 5.37258 18.8276 0 12.2002 0C5.57277 0 0.200195 5.37258 0.200195 12C0.200195 17.9895 4.5884 22.954 10.3252 23.8542V15.4687H7.27832V12H10.3252V9.35625C10.3252 6.34875 12.1168 4.6875 14.8578 4.6875C16.1703 4.6875 17.5439 4.92187 17.5439 4.92187V7.875H16.0308C14.5402 7.875 14.0752 8.80008 14.0752 9.75V12H17.4033L16.8713 15.4687H14.0752V23.8542C19.812 22.954 24.2002 17.9895 24.2002 12Z" fill="white"/>
</g>
<defs>
<clipPath id="clip0_109_1783">
<rect width="24" height="24" fill="white" transform="translate(0.200195)"/>
</clipPath>
</defs>
</svg>
