<svg width="25" height="24" viewBox="0 0 25 24" fill="none" xmlns="http://www.w3.org/2000/svg">
<g clip-path="url(#clip0_109_1786)">
<path d="M7.75035 21.75C16.8047 21.75 21.7585 14.2467 21.7585 7.74186C21.7585 7.53092 21.7538 7.3153 21.7444 7.10436C22.7081 6.40746 23.5397 5.54425 24.2002 4.5553C23.3027 4.9546 22.3498 5.21538 21.3741 5.32874C22.4015 4.71291 23.1707 3.74547 23.5393 2.60577C22.5727 3.17856 21.5158 3.58261 20.4136 3.80061C19.671 3.01156 18.6892 2.48912 17.6199 2.31405C16.5506 2.13899 15.4534 2.32105 14.4979 2.8321C13.5425 3.34314 12.782 4.15471 12.334 5.14131C11.8861 6.12792 11.7756 7.23462 12.0197 8.2903C10.0627 8.19209 8.14813 7.6837 6.40018 6.7981C4.65222 5.91249 3.10989 4.66944 1.87316 3.14952C1.24459 4.23324 1.05225 5.51565 1.33523 6.73609C1.6182 7.95654 2.35526 9.02345 3.3966 9.71999C2.61482 9.69517 1.85017 9.48468 1.16582 9.10592V9.16686C1.16512 10.3041 1.55829 11.4066 2.27851 12.2868C2.99872 13.167 4.00152 13.7706 5.11645 13.995C4.39225 14.1931 3.63218 14.222 2.89504 14.0794C3.20965 15.0574 3.82177 15.9129 4.64597 16.5263C5.47016 17.1398 6.46532 17.4806 7.49254 17.5012C5.74862 18.8711 3.59437 19.6141 1.37676 19.6106C0.983482 19.61 0.590594 19.5859 0.200195 19.5384C2.45305 20.9837 5.07373 21.7514 7.75035 21.75Z" fill="white"/>
</g>
<defs>
<clipPath id="clip0_109_1786">
<rect width="24" height="24" fill="white" transform="translate(0.200195)"/>
</clipPath>
</defs>
</svg>
