<svg width="34" height="35" viewBox="0 0 34 35" fill="none" xmlns="http://www.w3.org/2000/svg">
<path d="M21.0472 24.6991C23.7312 24.3807 26.3193 23.7497 28.7741 22.8435C26.7386 20.5841 25.4997 17.593 25.4997 14.3125V13.3197C25.4999 13.2965 25.5 13.2732 25.5 13.25C25.5 8.55558 21.6944 4.75 17 4.75C12.3056 4.75 8.5 8.55558 8.5 13.25L8.49972 14.3125C8.49972 17.593 7.2608 20.5841 5.22534 22.8435C7.68032 23.7498 10.2686 24.3808 12.9528 24.6992M21.0472 24.6991C19.72 24.8565 18.3693 24.9375 16.9997 24.9375C15.6303 24.9375 14.2798 24.8565 12.9528 24.6992M21.0472 24.6991C21.1789 25.1091 21.25 25.5462 21.25 26C21.25 28.3472 19.3472 30.25 17 30.25C14.6528 30.25 12.75 28.3472 12.75 26C12.75 25.5463 12.8211 25.1091 12.9528 24.6992" stroke="white" stroke-width="2" stroke-linecap="round" stroke-linejoin="round"/>
</svg>
