<svg width="40" height="40" viewBox="0 0 40 40" fill="none" xmlns="http://www.w3.org/2000/svg">
<path fill-rule="evenodd" clip-rule="evenodd" d="M33.7136 34.5582C37.5839 30.911 40 25.7377 40 20C40 8.9543 31.0457 0 20 0C8.9543 0 0 8.9543 0 20C0 25.7377 2.41611 30.911 6.28641 34.5582C9.86691 37.9322 14.692 40 20 40C25.308 40 30.1331 37.9322 33.7136 34.5582ZM7.99 31.9227C10.8095 28.4057 15.1418 26.1538 20 26.1538C24.8582 26.1538 29.1905 28.4057 32.01 31.9227C28.9442 35.0108 24.6954 36.9231 20 36.9231C15.3046 36.9231 11.0559 35.0108 7.99 31.9227ZM27.6923 13.8462C27.6923 18.0945 24.2483 21.5385 20 21.5385C15.7517 21.5385 12.3077 18.0945 12.3077 13.8462C12.3077 9.59781 15.7517 6.15385 20 6.15385C24.2483 6.15385 27.6923 9.59781 27.6923 13.8462Z" fill="white"/>
</svg>
